HIERARCHY
ROOT Hips
{
  OFFSET -102.467 93.6631 130.069
  CHANNELS 6 Xposition Yposition Zposition Zrotation Xrotation Yrotation
  JOINT LeftUpLeg
  {
    OFFSET 8.64259 1.95398 -2.38835
    CHANNELS 3 Zrotation Xrotation Yrotation
    JOINT LeftLeg
    {
      OFFSET 43.7702 0 0
      CHANNELS 3 Zrotation Xrotation Yrotation
      JOINT LeftFoot
      {
        OFFSET 40.6238 0 0
        CHANNELS 3 Zrotation Xrotation Yrotation
        JOINT LeftToeBase
        {
          OFFSET 12.7242 0 0
          CHANNELS 3 Zrotation Xrotation Yrotation
          End Site
          {
            OFFSET 0 0 0
          }
        }
      }
    }
  }
  JOINT RightUpLeg
  {
    OFFSET -8.2249 1.95398 -2.59336
    CHANNELS 3 Zrotation Xrotation Yrotation
    JOINT RightLeg
    {
      OFFSET 43.5653 0 0
      CHANNELS 3 Zrotation Xrotation Yrotation
      JOINT RightFoot
      {
        OFFSET 40.6238 0 0
        CHANNELS 3 Zrotation Xrotation Yrotation
        JOINT RightToeBase
        {
          OFFSET 12.7242 0 0
          CHANNELS 3 Zrotation Xrotation Yrotation
          End Site
          {
            OFFSET 0 0 0
          }
        }
      }
    }
  }
  JOINT Spine
  {
    OFFSET 0.165834 0.87714 6.61349
    CHANNELS 3 Zrotation Xrotation Yrotation
    JOINT Spine1
    {
      OFFSET 7.38963 1.71661e-005 0
      CHANNELS 3 Zrotation Xrotation Yrotation
      JOINT Spine2
      {
        OFFSET 11.9445 1.14441e-005 0
        CHANNELS 3 Zrotation Xrotation Yrotation
        JOINT Spine3
        {
          OFFSET 14.7254 4.19617e-005 0
          CHANNELS 3 Zrotation Xrotation Yrotation
          JOINT Spine4
          {
            OFFSET 10.9679 0 0
            CHANNELS 3 Zrotation Xrotation Yrotation
            JOINT RightShoulder
            {
              OFFSET 2.46616 -1.6653 3.69651
              CHANNELS 3 Zrotation Xrotation Yrotation
              JOINT RightArm
              {
                OFFSET 13.0012 0 0
                CHANNELS 3 Zrotation Xrotation Yrotation
                JOINT RightForeArm
                {
                  OFFSET 28.7848 1.52588e-005 0
                  CHANNELS 3 Zrotation Xrotation Yrotation
                  JOINT RightHand
                  {
                    OFFSET 26.5688 1.52588e-005 0
                    CHANNELS 3 Zrotation Xrotation Yrotation
                    End Site
                    {
                      OFFSET 0 0 0
                    }
                  }
                }
              }
            }
            JOINT LeftShoulder
            {
              OFFSET 2.38034 -1.29275 -3.7523
              CHANNELS 3 Zrotation Xrotation Yrotation
              JOINT LeftArm
              {
                OFFSET 16.3182 6.10351e-005 0
                CHANNELS 3 Zrotation Xrotation Yrotation
                JOINT LeftForeArm
                {
                  OFFSET 27.0901 0 0
                  CHANNELS 3 Zrotation Xrotation Yrotation
                  JOINT LeftHand
                  {
                    OFFSET 24.5451 1.52588e-005 0
                    CHANNELS 3 Zrotation Xrotation Yrotation
                    End Site
                    {
                      OFFSET 0 0 0
                    }
                  }
                }
              }
            }
            JOINT Neck
            {
              OFFSET 5.0226 -0.0266342 0
              CHANNELS 3 Zrotation Xrotation Yrotation
              JOINT Head
              {
                OFFSET 6.69363 2.86102e-005 0
                CHANNELS 3 Zrotation Xrotation Yrotation
                End Site
                {
                  OFFSET 0 0 0
                }
              }
            }
          }
        }
      }
    }
  }
}
MOTION
Frames:	17
Frame Time:	0.0416667
-9.38469 73.1707 45.7979 103.74 -14.2452 80.7118 178.779 32.7602 106.557 -53.3366 23.969 6.04565 51.6118 -4.04941 -2.28023 63.2624 0.646028 12.6118 174.174 48.4997 90.5619 -99.6733 -21.6684 -2.64783 54.5938 -0.557442 -6.11505 45.6425 0.591068 14.8144 -0.139504 10.653 -89.303 5.56511 0.0121512 1.36608 -6.10657 0.0722974 1.3642 -28.6362 -0.398923 1.30659 -8.62355 -0.398921 1.30659 99.9426 -50.4177 -85.6183 18.9486 -21.3215 -11.1796 -20.0688 5.78686 -75.0481 -6.56632 -0.000483716 -5.61816 -89.0589 -44.5042 78.7309 -0.318236 -3.77203 -22.9881 5.51212 6.7793 -23.7056 3.89228 -0.307626 -8.16595 -4.30415 -17.3471 -11.0294 -3.29231 -16.2604 -23.485 
-4.60127 74.0385 40.1236 100.25 -20.7545 80.5259 -177.882 34.5643 105.538 -61.8154 25.0316 4.24943 61.5787 2.44592 1.36687 63.9226 1.54375 14.913 164.376 53.1086 93.6654 -98.4926 -21.3453 -1.26354 58.0024 1.09145 1.83758 41.5147 0.542321 12.9633 -0.339596 11.5973 -88.9913 3.6773 -0.274362 1.9741 -7.99513 -0.187258 1.98426 -30.5201 -0.854878 1.80049 -10.5074 -0.854923 1.80046 99.831 -52.6167 -85.6968 20.8729 -19.4261 -16.3049 -25.0632 9.18676 -87.8014 -7.03606 -0.0574025 -4.55676 -92.0187 -43.9946 73.8739 0.351879 -8.26505 -35.2696 2.42393 7.75959 -5.87003 5.88831 -0.336426 -7.77405 8.78922 -17.5042 -13.0714 -4.01007 -14.3932 -18.4802 
-1.0853 75.5704 36.915 91.588 -19.4104 77.5074 -178.721 39.3468 102.103 -61.1541 24.2777 3.49288 66.1428 7.09318 5.17784 64.4716 2.15827 16.4463 139.53 57.7191 110.407 -89.767 -20.6016 3.14624 58.3719 -0.775672 -2.33109 53.4728 -0.525959 14.1451 -0.618477 11.7416 -89.0396 3.3934 -0.853253 1.87367 -8.27869 -0.769947 1.90938 -30.8082 -1.37685 1.53073 -10.7956 -1.37685 1.53072 99.3057 -56.4984 -86.2963 21.0607 -16.2039 -13.1841 -19.5121 6.94567 -83.1464 -14.2989 -0.396706 -1.99195 -94.6006 -43.79 69.7134 -5.6031 -8.80059 -56.0623 2.57951 9.77073 -2.23326 5.05214 -0.302372 -7.60825 17.9736 -18.4988 -12.4885 -4.49883 -14.3051 -16.6366 
3.14925 78.1899 36.2983 87.5794 -18.0047 73.2034 -178.766 37.5728 96.2997 -56.7145 21.7467 2.91124 66.1966 7.6527 5.93896 66.2662 1.89604 15.6805 137.437 58.998 110.174 -82.4079 -15.3871 5.35456 60.7237 -1.81126 -1.62797 52.4318 0.419583 16.1534 -0.983047 12.1137 -89.135 2.65529 -1.62458 1.66818 -9.0158 -1.54961 1.73803 -31.5548 -2.05082 1.10277 -11.5421 -2.05082 1.10276 97.8477 -58.2452 -88.2703 19.8902 -14.8713 -9.53421 -8.11362 1.50542 -66.397 -22.8319 -1.02012 -0.0674754 -96.2395 -41.8796 66.4209 -10.8939 -2.05244 -70.3451 9.58974 18.171 -21.7323 3.16427 -0.272584 -8.18154 27.308 -18.4219 -6.07798 -6.50282 -15.0843 -17.5242 
9.42577 80.4724 38.6989 82.8969 -22.1835 68.7646 -174.862 30.6095 94.3226 -49.1481 22.1364 1.20266 68.242 8.1661 4.64584 68.6235 2.3833 16.6309 147.163 57.7551 103.306 -76.4168 -11.6392 5.35402 57.5316 1.6851 1.23041 38.8746 1.63538 15.9265 -1.06753 11.7849 -89.2302 3.31269 -1.82648 1.49517 -8.35791 -1.75895 1.5741 -30.9006 -2.19138 0.876968 -10.8879 -2.19138 0.876975 95.6863 -57.2125 -91.4312 23.6357 -17.938 -1.16636 -2.58381 3.39696 -53.7276 -21.7 -0.662142 -1.7485 -94.8316 -42.0132 68.7514 -7.78502 6.42915 -68.9882 15.9109 12.3461 -46.9507 5.79436 -0.39126 -8.62968 28.2929 -16.4689 0.368629 -8.11805 -15.2249 -18.8017 
17.0331 81.6145 44.619 76.9463 -32.118 65.6303 -178.512 27.2969 97.5314 -54.1078 18.5628 3.81718 58.446 -1.81438 -8.4241 76.5097 2.97206 17.1981 154.999 48.0534 100.473 -71.6051 -15.0161 6.89927 63.0302 -2.97153 -1.80414 36.5301 3.08399 21.54 -0.66448 11.0958 -89.4048 4.68632 -1.08417 1.18093 -6.98478 -1.03114 1.22748 -29.5213 -1.38893 0.800503 -9.50862 -1.38893 0.800492 93.9297 -56.5712 -94.0195 28.1639 -20.0051 2.88245 13.527 17.6172 -45.1625 -16.4781 -0.0791936 -4.71876 -93.7795 -47.9515 72.2571 -12.4298 9.13513 -48.9395 13.542 12.0465 -41.939 6.35662 -0.427214 -8.77899 24.618 -14.3118 -0.388458 -8.3975 -13.0434 -15.4981 
24.131 81.4568 52.0377 73.6624 -45.7161 63.2143 171.584 32.6873 96.645 -79.1657 16.5431 5.48888 51.2892 -0.83205 7.22663 61.4167 1.23014 14.3345 162.58 37.1256 97.8879 -70.7854 -16.6911 5.59737 62.9071 -0.335648 1.74688 40.2891 3.34245 23.1623 -0.210162 11.1872 -89.6683 4.49913 -0.284634 0.652968 -7.17201 -0.25564 0.664843 -29.7057 -0.467721 0.53724 -9.69307 -0.46771 0.53724 94.3157 -56.8077 -93.4347 25.0243 -16.4124 -6.57644 11.5751 15.9536 -43.1175 -16.4668 0.0108491 -5.3691 -91.9345 -56.7352 77.1379 -12.1548 2.27865 -24.8599 8.30477 19.3786 -20.8845 8.11222 -0.189845 -5.52905 30.4462 -9.52006 5.37998 -13.2321 -10.1401 -13.6126 
30.2071 81.1073 59.734 61.8673 -61.5127 55.5998 170.927 49.4543 96.9973 -94.7617 11.2674 3.84635 57.2977 6.44937 15.588 58.2814 1.75534 15.8486 172.82 25.8891 98.1704 -67.232 -21.044 1.88987 65.8215 -1.75817 2.46484 42.7177 3.78904 24.8877 0.600483 11.2203 -89.8423 4.42864 1.2638 0.298566 -7.24173 1.27571 0.242626 -29.7806 1.11566 0.664632 -9.76796 1.11565 0.664616 95.8023 -52.9803 -91.739 22.9222 -10.9109 -25.7198 9.65002 10.4079 -55.7933 -15.7134 0.00717694 -5.39912 -90.9938 -59.0443 78.9007 -12.9022 2.45013 3.85769 2.04385 16.6137 -10.3225 7.80589 -0.000520114 -3.39867 37.6372 -4.32117 8.61323 -16.338 -7.05727 -10.292 
34.5558 83.3586 70.358 42.4175 -66.9879 31.7347 -168.925 63.3354 80.7486 -81.8365 16.2794 0.573471 59.6336 4.85821 10.5138 63.5986 1.48999 14.7517 178.082 12.6783 89.1434 -52.8118 -25.2042 -3.02432 69.4547 -4.5061 1.34848 45.2661 3.15648 23.8841 0.90491 10.9543 -89.0891 4.95287 2.18346 1.75056 -6.7172 2.25839 1.65276 -29.2523 1.55652 2.32571 -9.23968 1.55652 2.32571 97.8512 -43.1825 -89.4927 20.4238 -7.68402 -45.1049 -3.47941 5.29015 -80.3781 -14.143 -0.0613196 -4.81441 -93.9 -54.9089 73.9438 -20.0824 9.5674 18.8648 -1.67214 17.3611 -10.7277 8.0006 -0.149562 -4.93867 41.4142 -3.65267 7.21185 -18.3249 -6.11346 -7.28196 
38.8553 83.6734 86.0151 40.6759 -63.3443 28.2326 -156.09 60.3104 69.9937 -70.9144 17.2159 -3.7577 57.3354 0.440996 4.03802 68.0472 -0.606287 9.75529 178.968 -3.27157 87.9544 -27.1185 -23.551 -3.37664 38.4364 15.3365 23.4043 1.2161 5.33285 11.7504 0.60626 10.0682 -88.7856 6.71384 1.72903 2.32416 -4.95788 1.82961 2.24584 -27.4799 0.950893 2.73607 -7.46723 0.950883 2.73607 98.6789 -42.5488 -88.152 13.398 -15.8954 -42.5886 -10.4314 8.03711 -89.4439 -10.7579 -0.101171 -4.25952 -94.2355 -56.3404 73.8449 -9.77704 12.902 3.18448 -6.01822 23.3272 -4.92566 6.61385 -0.24284 -6.30801 28.3904 -6.42354 0.41804 -13.7388 -6.09327 -2.48123 
41.9432 83.1944 103.21 47.3247 -64.0845 37.7443 -168.613 41.2109 81.929 -66.0626 20.3971 -2.47714 67.8691 9.9181 10.4484 68.4858 0.769032 12.885 176.794 9.91668 95.6633 -72.2565 -19.6126 -1.78637 40.0567 13.042 9.76746 -1.87287 7.47877 -3.47452 0.360469 10.0682 -89.1354 6.72654 1.08834 1.66441 -4.94497 1.16053 1.61491 -27.4719 0.537915 1.91446 -7.45922 0.537913 1.91445 97.546 -49.4183 -89.4346 18.0296 -25.9465 -21.332 -16.8361 4.50262 -68.5231 -6.81403 -0.0333169 -5.67346 -92.3855 -57.4406 76.6587 6.9898 7.84544 -26.1964 -4.03157 18.2789 -10.4124 8.7301 -0.250317 -6.02554 28.4595 -6.23864 -1.56477 -15.8288 -5.06901 -2.94172 
43.4642 83.0617 119.746 62.7771 -58.6867 46.2535 -178.082 24.6346 84.7085 -54.6192 26.4065 0.343572 66.7156 9.18077 11.7591 77.2012 2.23598 15.7568 172.195 42.1618 90.4077 -112.056 -17.9577 -3.34595 45.8991 8.75685 6.29658 13.5056 3.42173 -5.52814 -0.789911 10.0596 -88.7313 6.75561 -1.03643 2.54995 -4.91762 -0.923252 2.59303 -27.4408 -1.75474 2.12086 -7.42817 -1.75474 2.12086 99.0269 -55.0132 -86.7606 30.6509 -20.1805 7.4964 -18.2825 -12.4032 -46.7613 -9.17999 -0.271826 -1.60276 -90.4079 -48.9781 77.6052 9.19904 -8.65153 -54.192 6.66199 14.6183 -25.803 10.6785 -0.465475 -7.56407 29.0327 -5.27377 2.35865 -15.7087 -5.1487 -7.74873 
46.0661 84.8773 139.375 57.8866 -57.2153 49.3554 -177.554 -0.00284197 90.0207 -29.7294 26.0848 5.82109 54.6685 -3.53545 -6.80301 82.0094 -1.47895 9.26983 165.923 68.9449 99.5849 -105.661 -12.3382 -3.4935 54.173 4.44381 5.38313 43.0809 -2.31199 3.35291 -1.19078 9.51739 -89.8562 7.85718 -2.31461 0.417661 -3.81169 -2.29398 0.519167 -26.3646 -2.33315 -0.297698 -6.35197 -2.33313 -0.297695 95.6646 -49.2415 -92.4411 41.1297 -12.6031 38.8345 -12.7358 -6.58911 -43.7673 -4.32874 -0.030766 -5.10792 -85.787 -41.0076 83.4306 -6.82537 -18.5373 -57.9619 17.8955 2.87413 -64.4196 13.0235 -0.693922 -8.87224 29.4988 -2.49121 1.59548 -18.2022 -2.62454 -3.10745 
49.197 88.7887 161.189 53.0772 -62.4311 48.9209 -178.517 -2.57317 96.0301 -35.7177 23.5438 7.70091 39.3982 -9.33107 -2.02238 52.1832 -1.07648 6.14158 165.927 64.2815 94.8695 -68.0528 -12.3821 2.46584 58.0311 2.29094 1.51749 70.8662 -6.954 6.94302 -0.906344 10.0495 -90.7321 6.76024 -2.12283 -1.35758 -4.9096 -2.18053 -1.26281 -27.448 -1.61676 -1.93281 -7.43533 -1.61675 -1.93278 94.0623 -49.7523 -94.825 35.9209 -7.56185 35.5703 5.64836 11.9366 -40.0194 -3.4073 0.0416784 -7.9335 -85.7313 -46.4424 84.3765 3.15755 -1.97775 -35.2289 16.3645 -2.07528 -73.5979 9.92036 -0.383275 -7.08781 43.4928 -0.197179 -2.97941 -29.8319 0.345381 4.5319 
52.9863 87.4762 183.84 43.1444 -72.1658 43.0243 178.466 14.26 96.1755 -85.9166 12.8504 4.51879 44.1029 -4.58545 5.97309 52.828 -1.68228 4.14225 162.21 45.5961 95.8156 -58.6106 -15.9874 8.95881 61.3805 0.757655 0.974005 51.681 -3.29146 6.14681 0.0402577 10.7417 -91.183 5.37963 -0.410957 -2.31437 -6.29336 -0.512391 -2.29406 -28.8115 0.303365 -2.33091 -8.79884 0.303369 -2.33092 96.3173 -53.0166 -90.9534 26.0703 -9.29887 9.84903 8.82292 13.2108 -46.9307 -4.16987 0.0310521 -7.17833 -88.8991 -56.2587 81.2323 -2.33249 18.1357 -17.7092 6.68907 16.5928 -32.5999 6.03415 -0.43325 -8.87905 46.8371 0.557703 -5.40377 -30.0475 1.11582 10.2945 
54.6656 85.4415 207.371 0.394781 -74.916 4.55841 177.901 46.5978 94.1481 -106.433 8.48108 3.04762 50.9996 2.15781 13.2777 55.2326 -1.6744 4.89137 168.469 27.2469 101.581 -57.589 -15.9852 6.8665 73.7868 -8.30126 -1.82747 63.668 -4.88036 8.1776 0.873995 9.99187 -90.9018 6.90116 1.35956 -1.83675 -4.77039 1.27742 -1.8948 -27.3056 1.84873 -1.34329 -7.29294 1.84872 -1.34331 99.1378 -49.9816 -86.8798 24.5903 -9.99448 -11.4033 2.44352 10.1985 -73.3446 -5.46195 -0.00209903 -5.64856 -87.7245 -61.0425 83.6324 -19.0495 21.6843 17.9157 3.36443 31.613 -24.2228 4.55264 -0.106275 -4.56771 38.6605 1.97623 -4.73805 -25.6052 2.30183 9.65 
54.7592 87.6132 233.483 10.929 -77.0817 10.0934 172.345 57.8224 90.9592 -72.863 8.84271 3.50334 56.381 3.02911 11.4649 59.7353 -0.905568 8.03666 177.142 -0.182802 90.1172 -34.2315 -14.5932 -0.117483 57.7932 6.11391 11.1815 48.7451 -3.94332 2.17244 0.916108 9.61616 -90.2457 7.64778 1.7224 -0.57572 -4.02214 1.69541 -0.650985 -26.5667 1.81577 -0.0312815 -6.55405 1.81577 -0.0312812 100.639 -48.3215 -84.6062 26.387 -13.7032 -11.2779 -0.964707 6.46044 -89.2039 -4.66961 0.0817094 -8.16407 -89.3068 -54.9713 80.4646 -28.593 19.3816 31.3065 4.92077 37.3477 -24.9321 0.160601 -0.125238 -6.64529 28.5106 -1.56636 -6.75072 -20.6861 -0.89704 13.3717 
